{
	"patcher" : 	{
		"fileversion" : 1,
		"appversion" : 		{
			"major" : 7,
			"minor" : 1,
			"revision" : 0,
			"architecture" : "x86",
			"modernui" : 1
		}
,
		"rect" : [ 769.0, 589.0, 327.0, 288.0 ],
		"bglocked" : 0,
		"openinpresentation" : 1,
		"default_fontsize" : 12.0,
		"default_fontface" : 0,
		"default_fontname" : "Arial",
		"gridonopen" : 1,
		"gridsize" : [ 15.0, 15.0 ],
		"gridsnaponopen" : 1,
		"objectsnaponopen" : 1,
		"statusbarvisible" : 2,
		"toolbarvisible" : 1,
		"lefttoolbarpinned" : 0,
		"toptoolbarpinned" : 0,
		"righttoolbarpinned" : 0,
		"bottomtoolbarpinned" : 0,
		"toolbars_unpinned_last_save" : 0,
		"tallnewobj" : 0,
		"boxanimatetime" : 200,
		"enablehscroll" : 1,
		"enablevscroll" : 1,
		"devicewidth" : 0.0,
		"description" : "",
		"digest" : "",
		"tags" : "",
		"style" : "",
		"subpatcher_template" : "",
		"boxes" : [ 			{
				"box" : 				{
					"id" : "obj-24",
					"maxclass" : "toggle",
					"numinlets" : 1,
					"numoutlets" : 1,
					"outlettype" : [ "int" ],
					"parameter_enable" : 0,
					"patching_rect" : [ 377.0, 97.0, 24.0, 24.0 ],
					"style" : ""
				}

			}
, 			{
				"box" : 				{
					"id" : "obj-18",
					"maxclass" : "message",
					"numinlets" : 2,
					"numoutlets" : 1,
					"outlettype" : [ "" ],
					"patching_rect" : [ 611.0, 92.0, 29.5, 22.0 ],
					"style" : "",
					"text" : "0"
				}

			}
, 			{
				"box" : 				{
					"id" : "obj-17",
					"maxclass" : "message",
					"numinlets" : 2,
					"numoutlets" : 1,
					"outlettype" : [ "" ],
					"patching_rect" : [ 575.0, 92.0, 29.5, 22.0 ],
					"style" : "",
					"text" : "1"
				}

			}
, 			{
				"box" : 				{
					"id" : "obj-1",
					"maxclass" : "message",
					"numinlets" : 2,
					"numoutlets" : 1,
					"outlettype" : [ "" ],
					"patching_rect" : [ 271.0, 535.0, 218.0, 22.0 ],
					"presentation" : 1,
					"presentation_rect" : [ 30.5, 80.0, 218.0, 22.0 ],
					"style" : "",
					"text" : "218.907898 -10.342381 337.953979"
				}

			}
, 			{
				"box" : 				{
					"id" : "obj-2",
					"maxclass" : "message",
					"numinlets" : 2,
					"numoutlets" : 1,
					"outlettype" : [ "" ],
					"patching_rect" : [ 16.0, 535.0, 218.0, 22.0 ],
					"presentation" : 1,
					"presentation_rect" : [ 30.5, 56.0, 218.0, 22.0 ],
					"style" : "",
					"text" : "225.585571 -140.869476 184.735229"
				}

			}
, 			{
				"box" : 				{
					"id" : "obj-16",
					"int" : 1,
					"maxclass" : "gswitch",
					"numinlets" : 3,
					"numoutlets" : 1,
					"outlettype" : [ "" ],
					"parameter_enable" : 0,
					"patching_rect" : [ 237.5, 112.0, 41.0, 32.0 ],
					"presentation" : 1,
					"presentation_rect" : [ 231.5, 17.0, 41.0, 32.0 ],
					"style" : ""
				}

			}
, 			{
				"box" : 				{
					"id" : "obj-11",
					"int" : 1,
					"maxclass" : "gswitch",
					"numinlets" : 3,
					"numoutlets" : 1,
					"outlettype" : [ "" ],
					"parameter_enable" : 0,
					"patching_rect" : [ 30.5, 112.0, 41.0, 32.0 ],
					"presentation" : 1,
					"presentation_rect" : [ 30.5, 17.0, 41.0, 32.0 ],
					"style" : ""
				}

			}
, 			{
				"box" : 				{
					"id" : "obj-10",
					"maxclass" : "newobj",
					"numinlets" : 0,
					"numoutlets" : 1,
					"outlettype" : [ "" ],
					"patching_rect" : [ 377.0, 59.0, 167.0, 22.0 ],
					"style" : "",
					"text" : "r TimelineToHeadFollowHand"
				}

			}
, 			{
				"box" : 				{
					"id" : "obj-9",
					"maxclass" : "newobj",
					"numinlets" : 0,
					"numoutlets" : 1,
					"outlettype" : [ "" ],
					"patching_rect" : [ 248.5, 59.0, 74.0, 22.0 ],
					"style" : "",
					"text" : "r RhandPos"
				}

			}
, 			{
				"box" : 				{
					"id" : "obj-7",
					"maxclass" : "newobj",
					"numinlets" : 0,
					"numoutlets" : 1,
					"outlettype" : [ "" ],
					"patching_rect" : [ 30.5, 59.0, 72.0, 22.0 ],
					"style" : "",
					"text" : "r LhandPos"
				}

			}
, 			{
				"box" : 				{
					"fontsize" : 48.0,
					"id" : "obj-6",
					"linecount" : 3,
					"maxclass" : "message",
					"numinlets" : 2,
					"numoutlets" : 1,
					"outlettype" : [ "" ],
					"patching_rect" : [ 230.0, 247.0, 279.0, 169.0 ],
					"presentation" : 1,
					"presentation_linecount" : 3,
					"presentation_rect" : [ 30.5, 104.0, 251.0, 169.0 ],
					"style" : "",
					"text" : "/neckTilt2 0.3 12.225806"
				}

			}
, 			{
				"box" : 				{
					"id" : "obj-3",
					"maxclass" : "newobj",
					"numinlets" : 0,
					"numoutlets" : 1,
					"outlettype" : [ "" ],
					"patching_rect" : [ 30.5, 192.0, 139.0, 22.0 ],
					"style" : "",
					"text" : "r HeadFollowHandMess"
				}

			}
, 			{
				"box" : 				{
					"id" : "obj-5",
					"maxclass" : "newobj",
					"numinlets" : 1,
					"numoutlets" : 0,
					"patching_rect" : [ 30.5, 281.0, 97.0, 22.0 ],
					"style" : "",
					"text" : "s toFinalOutPort"
				}

			}
, 			{
				"box" : 				{
					"id" : "obj-4",
					"maxclass" : "newobj",
					"numinlets" : 2,
					"numoutlets" : 0,
					"patcher" : 					{
						"fileversion" : 1,
						"appversion" : 						{
							"major" : 7,
							"minor" : 1,
							"revision" : 0,
							"architecture" : "x86",
							"modernui" : 1
						}
,
						"rect" : [ 703.0, 79.0, 703.0, 629.0 ],
						"bglocked" : 0,
						"openinpresentation" : 0,
						"default_fontsize" : 12.0,
						"default_fontface" : 0,
						"default_fontname" : "Arial",
						"gridonopen" : 1,
						"gridsize" : [ 15.0, 15.0 ],
						"gridsnaponopen" : 1,
						"objectsnaponopen" : 1,
						"statusbarvisible" : 2,
						"toolbarvisible" : 1,
						"lefttoolbarpinned" : 0,
						"toptoolbarpinned" : 0,
						"righttoolbarpinned" : 0,
						"bottomtoolbarpinned" : 0,
						"toolbars_unpinned_last_save" : 0,
						"tallnewobj" : 0,
						"boxanimatetime" : 200,
						"enablehscroll" : 1,
						"enablevscroll" : 1,
						"devicewidth" : 0.0,
						"description" : "",
						"digest" : "",
						"tags" : "",
						"style" : "",
						"subpatcher_template" : "",
						"boxes" : [ 							{
								"box" : 								{
									"#init" : "",
									"#loadbang" : 0,
									"#triggerall" : 0,
									"#untuple" : 0,
									"fontface" : 0,
									"fontname" : "Arial",
									"fontsize" : 12.0,
									"ftm_objref_conv" : 0,
									"ftm_scope" : 3,
									"id" : "obj-5",
									"linecount" : 2,
									"maxclass" : "ftm.mess",
									"numinlets" : 2,
									"numoutlets" : 1,
									"outlettype" : [ "" ],
									"patching_rect" : [ 210.0, 182.5, 188.771484, 31.0 ],
									"presentation_linecount" : 2,
									"presentation_rect" : [ 210.0, 182.5, 188.771484, 31.0 ],
									"text" : [ "_just look at the conductor gesture", "_when left hand is high enough" ]
								}

							}
, 							{
								"box" : 								{
									"id" : "obj-27",
									"linecount" : 5,
									"maxclass" : "comment",
									"numinlets" : 1,
									"numoutlets" : 0,
									"patching_rect" : [ 458.5, 326.0, 160.0, 74.0 ],
									"style" : "",
									"text" : "The speed of right hand moving controls the sampling rate of motion capture. The faster, the higher"
								}

							}
, 							{
								"box" : 								{
									"id" : "obj-9",
									"maxclass" : "newobj",
									"numinlets" : 1,
									"numoutlets" : 1,
									"outlettype" : [ "" ],
									"patching_rect" : [ 503.0, 61.166672, 72.0, 22.0 ],
									"style" : "",
									"text" : "loadmess 8"
								}

							}
, 							{
								"box" : 								{
									"allowdrag" : 0,
									"id" : "obj-20",
									"items" : [ "no", "filtering", ",", "pb", 0.1, "low-pass", "filter", ",", "pb", 0.2, "low-pass", "filter", ",", "pb", 0.3, "low-pass", "filter", ",", "pb", 0.4, "low-pass", "filter", ",", "pb", 0.5, "low-pass", "filter", ",", "pb", 0.1, "low-pass", "differentiator", ",", "pb", 0.2, "low-pass", "differentiator", ",", "pb", 0.3, "low-pass", "differentiator", ",", "pb", 0.4, "low-pass", "differentiator", ",", "pb", 0.5, "low-pass", "differentiator", ",", "pb", 0.1, "low-pass", "double", "differentiator", ",", "pb", 0.2, "low-pass", "double", "differentiator", ",", "pb", 0.3, "low-pass", "double", "differentiator", ",", "pb", 0.4, "low-pass", "double", "differentiator", ",", "pb", 0.5, "low-pass", "double", "differentiator" ],
									"maxclass" : "umenu",
									"numinlets" : 1,
									"numoutlets" : 3,
									"outlettype" : [ "int", "", "" ],
									"parameter_enable" : 0,
									"patching_rect" : [ 503.0, 96.166672, 71.0, 22.0 ],
									"style" : ""
								}

							}
, 							{
								"box" : 								{
									"id" : "obj-22",
									"maxclass" : "newobj",
									"numinlets" : 2,
									"numoutlets" : 1,
									"outlettype" : [ "float" ],
									"patcher" : 									{
										"fileversion" : 1,
										"appversion" : 										{
											"major" : 7,
											"minor" : 1,
											"revision" : 0,
											"architecture" : "x86",
											"modernui" : 1
										}
,
										"rect" : [ 415.0, 79.0, 595.0, 732.0 ],
										"bglocked" : 0,
										"openinpresentation" : 0,
										"default_fontsize" : 12.0,
										"default_fontface" : 0,
										"default_fontname" : "Arial",
										"gridonopen" : 1,
										"gridsize" : [ 15.0, 15.0 ],
										"gridsnaponopen" : 1,
										"objectsnaponopen" : 1,
										"statusbarvisible" : 2,
										"toolbarvisible" : 1,
										"lefttoolbarpinned" : 0,
										"toptoolbarpinned" : 0,
										"righttoolbarpinned" : 0,
										"bottomtoolbarpinned" : 0,
										"toolbars_unpinned_last_save" : 0,
										"tallnewobj" : 0,
										"boxanimatetime" : 200,
										"enablehscroll" : 1,
										"enablevscroll" : 1,
										"devicewidth" : 0.0,
										"description" : "",
										"digest" : "",
										"tags" : "",
										"style" : "",
										"subpatcher_template" : "",
										"boxes" : [ 											{
												"box" : 												{
													"fontname" : "Arial",
													"fontsize" : 12.0,
													"id" : "obj-14",
													"maxclass" : "newobj",
													"numinlets" : 2,
													"numoutlets" : 1,
													"outlettype" : [ "int" ],
													"patching_rect" : [ 112.5, 315.0, 32.5, 22.0 ],
													"style" : "",
													"text" : "+ 1"
												}

											}
, 											{
												"box" : 												{
													"fontname" : "Arial",
													"fontsize" : 12.0,
													"id" : "obj-2",
													"maxclass" : "newobj",
													"numinlets" : 2,
													"numoutlets" : 2,
													"outlettype" : [ "", "" ],
													"patching_rect" : [ 113.0, 419.0, 57.0, 22.0 ],
													"style" : "",
													"text" : "route set"
												}

											}
, 											{
												"box" : 												{
													"fontname" : "Arial",
													"fontsize" : 12.0,
													"id" : "obj-18",
													"linecount" : 2,
													"maxclass" : "comment",
													"numinlets" : 1,
													"numoutlets" : 0,
													"patching_rect" : [ 142.0, 254.0, 35.0, 33.0 ],
													"style" : "",
													"text" : "filter type"
												}

											}
, 											{
												"box" : 												{
													"fontname" : "Arial",
													"fontsize" : 12.0,
													"id" : "obj-17",
													"linecount" : 2,
													"maxclass" : "comment",
													"numinlets" : 1,
													"numoutlets" : 0,
													"patching_rect" : [ 24.5, 254.0, 35.0, 33.0 ],
													"style" : "",
													"text" : "data in"
												}

											}
, 											{
												"box" : 												{
													"fontname" : "Arial",
													"fontsize" : 12.0,
													"id" : "obj-16",
													"maxclass" : "comment",
													"numinlets" : 1,
													"numoutlets" : 0,
													"patching_rect" : [ 100.0, 548.5, 150.0, 20.0 ],
													"style" : "",
													"text" : "data out"
												}

											}
, 											{
												"box" : 												{
													"comment" : "data outlet",
													"id" : "obj-13",
													"maxclass" : "outlet",
													"numinlets" : 1,
													"numoutlets" : 0,
													"patching_rect" : [ 67.0, 546.0, 25.0, 25.0 ],
													"style" : ""
												}

											}
, 											{
												"box" : 												{
													"comment" : "data inlet",
													"id" : "obj-11",
													"maxclass" : "inlet",
													"numinlets" : 0,
													"numoutlets" : 1,
													"outlettype" : [ "float" ],
													"patching_rect" : [ 67.0, 258.0, 25.0, 25.0 ],
													"style" : ""
												}

											}
, 											{
												"box" : 												{
													"comment" : "Filter type, refer to list in help patcher",
													"id" : "obj-10",
													"maxclass" : "inlet",
													"numinlets" : 0,
													"numoutlets" : 1,
													"outlettype" : [ "int" ],
													"patching_rect" : [ 112.5, 258.0, 25.0, 25.0 ],
													"style" : ""
												}

											}
, 											{
												"box" : 												{
													"fontname" : "Arial",
													"fontsize" : 12.0,
													"id" : "obj-7",
													"maxclass" : "newobj",
													"numinlets" : 3,
													"numoutlets" : 1,
													"outlettype" : [ "float" ],
													"patching_rect" : [ 67.0, 492.0, 110.0, 22.0 ],
													"style" : "",
													"text" : "IIR4_internal"
												}

											}
, 											{
												"box" : 												{
													"fontname" : "Arial",
													"fontsize" : 12.0,
													"id" : "obj-6",
													"maxclass" : "message",
													"numinlets" : 2,
													"numoutlets" : 1,
													"outlettype" : [ "" ],
													"patching_rect" : [ 112.5, 345.0, 46.0, 22.0 ],
													"style" : "",
													"text" : "line $1"
												}

											}
, 											{
												"box" : 												{
													"fontname" : "Arial",
													"fontsize" : 12.0,
													"id" : "obj-4",
													"maxclass" : "newobj",
													"numinlets" : 1,
													"numoutlets" : 3,
													"outlettype" : [ "", "bang", "int" ],
													"patching_rect" : [ 112.5, 379.0, 183.0, 22.0 ],
													"style" : "",
													"text" : "text coefficients.txt @precision 6"
												}

											}
, 											{
												"box" : 												{
													"fontname" : "Arial",
													"fontsize" : 12.0,
													"id" : "obj-3",
													"linecount" : 16,
													"maxclass" : "comment",
													"numinlets" : 1,
													"numoutlets" : 0,
													"patching_rect" : [ 318.0, 278.0, 249.0, 221.0 ],
													"style" : "",
													"text" : "0: no filtering\n1: pb 0.1 low-pass filter\n2: pb 0.2 low-pass filter\n3: pb 0.3 low-pass filter\n4: pb 0.4 low-pass filter\n5: pb 0.5 low-pass filter\n6: pb 0.1 low-pass differentiator\n7: pb 0.2 low-pass differentiator\n8: pb 0.3 low-pass differentiator\n9: pb 0.4 low-pass differentiator\n10: pb 0.5 low-pass differentiator\n11: pb 0.1 low-pass double differentiator\n12: pb 0.2 low-pass double differentiator\n13: pb 0.3 low-pass double differentiator\n14: pb 0.4 low-pass double differentiator\n15: pb 0.5 low-pass double differentiator"
												}

											}
, 											{
												"box" : 												{
													"fontname" : "Arial",
													"fontsize" : 12.0,
													"id" : "obj-1",
													"maxclass" : "newobj",
													"numinlets" : 2,
													"numoutlets" : 2,
													"outlettype" : [ "", "" ],
													"patching_rect" : [ 112.5, 452.0, 64.5, 22.0 ],
													"style" : "",
													"text" : "zl slice 5"
												}

											}
 ],
										"lines" : [ 											{
												"patchline" : 												{
													"destination" : [ "obj-7", 2 ],
													"disabled" : 0,
													"hidden" : 0,
													"source" : [ "obj-1", 1 ]
												}

											}
, 											{
												"patchline" : 												{
													"destination" : [ "obj-7", 1 ],
													"disabled" : 0,
													"hidden" : 0,
													"source" : [ "obj-1", 0 ]
												}

											}
, 											{
												"patchline" : 												{
													"destination" : [ "obj-14", 0 ],
													"disabled" : 0,
													"hidden" : 0,
													"source" : [ "obj-10", 0 ]
												}

											}
, 											{
												"patchline" : 												{
													"destination" : [ "obj-7", 0 ],
													"disabled" : 0,
													"hidden" : 0,
													"source" : [ "obj-11", 0 ]
												}

											}
, 											{
												"patchline" : 												{
													"destination" : [ "obj-6", 0 ],
													"disabled" : 0,
													"hidden" : 0,
													"source" : [ "obj-14", 0 ]
												}

											}
, 											{
												"patchline" : 												{
													"destination" : [ "obj-1", 0 ],
													"disabled" : 0,
													"hidden" : 0,
													"source" : [ "obj-2", 0 ]
												}

											}
, 											{
												"patchline" : 												{
													"destination" : [ "obj-2", 0 ],
													"disabled" : 0,
													"hidden" : 0,
													"source" : [ "obj-4", 0 ]
												}

											}
, 											{
												"patchline" : 												{
													"destination" : [ "obj-4", 0 ],
													"disabled" : 0,
													"hidden" : 0,
													"source" : [ "obj-6", 0 ]
												}

											}
, 											{
												"patchline" : 												{
													"destination" : [ "obj-13", 0 ],
													"disabled" : 0,
													"hidden" : 0,
													"source" : [ "obj-7", 0 ]
												}

											}
 ]
									}
,
									"patching_rect" : [ 435.0, 125.166672, 87.0, 22.0 ],
									"saved_object_attributes" : 									{
										"description" : "",
										"digest" : "",
										"globalpatchername" : "",
										"style" : "",
										"tags" : ""
									}
,
									"style" : "",
									"text" : "p dataProcess"
								}

							}
, 							{
								"box" : 								{
									"id" : "obj-6",
									"maxclass" : "newobj",
									"numinlets" : 1,
									"numoutlets" : 3,
									"outlettype" : [ "float", "float", "float" ],
									"patching_rect" : [ 250.0, 92.0, 69.0, 22.0 ],
									"style" : "",
									"text" : "unpack f f f"
								}

							}
, 							{
								"box" : 								{
									"fontsize" : 40.0,
									"id" : "obj-23",
									"maxclass" : "message",
									"numinlets" : 2,
									"numoutlets" : 1,
									"outlettype" : [ "" ],
									"patching_rect" : [ 435.0, 414.0, 145.0, 53.0 ],
									"style" : ""
								}

							}
, 							{
								"box" : 								{
									"id" : "obj-15",
									"maxclass" : "newobj",
									"numinlets" : 1,
									"numoutlets" : 2,
									"outlettype" : [ "", "" ],
									"patching_rect" : [ 248.0, 585.0, 175.0, 22.0 ],
									"style" : "",
									"text" : "mxj quickie getChangingPoint2"
								}

							}
, 							{
								"box" : 								{
									"id" : "obj-36",
									"maxclass" : "newobj",
									"numinlets" : 1,
									"numoutlets" : 2,
									"outlettype" : [ "", "" ],
									"patching_rect" : [ 248.0, 561.0, 134.0, 22.0 ],
									"style" : "",
									"text" : "mxj quickie multiRange"
								}

							}
, 							{
								"box" : 								{
									"id" : "obj-25",
									"maxclass" : "newobj",
									"numinlets" : 1,
									"numoutlets" : 2,
									"outlettype" : [ "", "" ],
									"patching_rect" : [ 248.0, 609.0, 169.0, 22.0 ],
									"style" : "",
									"text" : "mxj quickie getChangingPoint"
								}

							}
, 							{
								"box" : 								{
									"id" : "obj-16",
									"linecount" : 8,
									"maxclass" : "comment",
									"numinlets" : 1,
									"numoutlets" : 0,
									"patching_rect" : [ 764.0, 19.5, 178.0, 114.0 ],
									"style" : "",
									"text" : "The idea of mapping:\n1, left hand y axis control on/off of listening to the data\n2, right hand y axis data is took derivative to get the velocity\n3, right hand y axis data is also downsampled to get rid of jittering issue"
								}

							}
, 							{
								"box" : 								{
									"id" : "obj-18",
									"linecount" : 3,
									"maxclass" : "comment",
									"numinlets" : 1,
									"numoutlets" : 0,
									"patching_rect" : [ 31.0, 579.5, 150.0, 47.0 ],
									"style" : "",
									"text" : "Only send out data when the current input does not equal to the previous one"
								}

							}
, 							{
								"box" : 								{
									"bgcolor" : [ 1.0, 1.0, 1.0, 1.0 ],
									"color" : [ 0.8, 0.839216, 0.709804, 0.51 ],
									"fontname" : "Arial",
									"fontsize" : 10.0,
									"id" : "obj-10",
									"maxclass" : "newobj",
									"numinlets" : 2,
									"numoutlets" : 1,
									"outlettype" : [ "" ],
									"patcher" : 									{
										"fileversion" : 1,
										"appversion" : 										{
											"major" : 7,
											"minor" : 1,
											"revision" : 0,
											"architecture" : "x86",
											"modernui" : 1
										}
,
										"rect" : [ 766.0, 79.0, 640.0, 480.0 ],
										"bglocked" : 0,
										"openinpresentation" : 0,
										"default_fontsize" : 12.0,
										"default_fontface" : 0,
										"default_fontname" : "Arial",
										"gridonopen" : 1,
										"gridsize" : [ 15.0, 15.0 ],
										"gridsnaponopen" : 1,
										"objectsnaponopen" : 1,
										"statusbarvisible" : 2,
										"toolbarvisible" : 1,
										"lefttoolbarpinned" : 0,
										"toptoolbarpinned" : 0,
										"righttoolbarpinned" : 0,
										"bottomtoolbarpinned" : 0,
										"toolbars_unpinned_last_save" : 0,
										"tallnewobj" : 0,
										"boxanimatetime" : 200,
										"enablehscroll" : 1,
										"enablevscroll" : 1,
										"devicewidth" : 0.0,
										"description" : "",
										"digest" : "",
										"tags" : "",
										"style" : "",
										"subpatcher_template" : "",
										"boxes" : [ 											{
												"box" : 												{
													"id" : "obj-3",
													"maxclass" : "newobj",
													"numinlets" : 1,
													"numoutlets" : 1,
													"outlettype" : [ "" ],
													"patching_rect" : [ 190.0, 111.0, 85.0, 22.0 ],
													"style" : "",
													"text" : "loadmess 100"
												}

											}
, 											{
												"box" : 												{
													"fontname" : "Arial",
													"fontsize" : 10.0,
													"id" : "obj-4",
													"maxclass" : "newobj",
													"numinlets" : 2,
													"numoutlets" : 3,
													"outlettype" : [ "", "clear", "int" ],
													"patcher" : 													{
														"fileversion" : 1,
														"appversion" : 														{
															"major" : 7,
															"minor" : 1,
															"revision" : 0,
															"architecture" : "x86",
															"modernui" : 1
														}
,
														"rect" : [ 901.0, 311.0, 470.0, 473.0 ],
														"bglocked" : 0,
														"openinpresentation" : 0,
														"default_fontsize" : 12.0,
														"default_fontface" : 0,
														"default_fontname" : "Arial",
														"gridonopen" : 1,
														"gridsize" : [ 15.0, 15.0 ],
														"gridsnaponopen" : 1,
														"objectsnaponopen" : 1,
														"statusbarvisible" : 2,
														"toolbarvisible" : 1,
														"lefttoolbarpinned" : 0,
														"toptoolbarpinned" : 0,
														"righttoolbarpinned" : 0,
														"bottomtoolbarpinned" : 0,
														"toolbars_unpinned_last_save" : 0,
														"tallnewobj" : 0,
														"boxanimatetime" : 200,
														"enablehscroll" : 1,
														"enablevscroll" : 1,
														"devicewidth" : 0.0,
														"description" : "",
														"digest" : "",
														"tags" : "",
														"style" : "",
														"subpatcher_template" : "",
														"boxes" : [ 															{
																"box" : 																{
																	"id" : "obj-12",
																	"maxclass" : "button",
																	"numinlets" : 1,
																	"numoutlets" : 1,
																	"outlettype" : [ "bang" ],
																	"patching_rect" : [ 326.0, 154.0, 24.0, 24.0 ],
																	"style" : ""
																}

															}
, 															{
																"box" : 																{
																	"fontname" : "Arial",
																	"fontsize" : 10.0,
																	"id" : "obj-63",
																	"maxclass" : "newobj",
																	"numinlets" : 1,
																	"numoutlets" : 2,
																	"outlettype" : [ "int", "int" ],
																	"patching_rect" : [ 204.0, 112.0, 29.0, 20.0 ],
																	"style" : "",
																	"text" : "t i i"
																}

															}
, 															{
																"box" : 																{
																	"comment" : "",
																	"id" : "obj-192",
																	"maxclass" : "inlet",
																	"numinlets" : 0,
																	"numoutlets" : 1,
																	"outlettype" : [ "float" ],
																	"patching_rect" : [ 62.0, 40.0, 25.0, 25.0 ],
																	"style" : ""
																}

															}
, 															{
																"box" : 																{
																	"comment" : "",
																	"id" : "obj-193",
																	"maxclass" : "inlet",
																	"numinlets" : 0,
																	"numoutlets" : 1,
																	"outlettype" : [ "" ],
																	"patching_rect" : [ 204.0, 40.0, 25.0, 25.0 ],
																	"style" : ""
																}

															}
, 															{
																"box" : 																{
																	"comment" : "",
																	"id" : "obj-194",
																	"maxclass" : "outlet",
																	"numinlets" : 1,
																	"numoutlets" : 0,
																	"patching_rect" : [ 52.0, 411.0, 25.0, 25.0 ],
																	"style" : ""
																}

															}
, 															{
																"box" : 																{
																	"comment" : "",
																	"id" : "obj-195",
																	"maxclass" : "outlet",
																	"numinlets" : 1,
																	"numoutlets" : 0,
																	"patching_rect" : [ 97.0, 411.0, 25.0, 25.0 ],
																	"style" : ""
																}

															}
, 															{
																"box" : 																{
																	"comment" : "",
																	"id" : "obj-196",
																	"maxclass" : "outlet",
																	"numinlets" : 1,
																	"numoutlets" : 0,
																	"patching_rect" : [ 204.0, 411.0, 25.0, 25.0 ],
																	"style" : ""
																}

															}
, 															{
																"box" : 																{
																	"fontname" : "Arial",
																	"fontsize" : 9.0,
																	"id" : "obj-14",
																	"maxclass" : "newobj",
																	"numinlets" : 2,
																	"numoutlets" : 1,
																	"outlettype" : [ "float" ],
																	"patching_rect" : [ 3.0, 283.0, 33.0, 19.0 ],
																	"style" : "",
																	"text" : "/ 250."
																}

															}
, 															{
																"box" : 																{
																	"fontname" : "Arial",
																	"fontsize" : 9.0,
																	"id" : "obj-42",
																	"maxclass" : "newobj",
																	"numinlets" : 1,
																	"numoutlets" : 2,
																	"outlettype" : [ "int", "int" ],
																	"patching_rect" : [ 223.0, 186.0, 59.0, 19.0 ],
																	"style" : "",
																	"text" : "t i i"
																}

															}
, 															{
																"box" : 																{
																	"fontname" : "Arial",
																	"fontsize" : 9.0,
																	"id" : "obj-41",
																	"maxclass" : "newobj",
																	"numinlets" : 2,
																	"numoutlets" : 1,
																	"outlettype" : [ "" ],
																	"patching_rect" : [ 52.0, 237.0, 29.0, 19.0 ],
																	"style" : "",
																	"text" : "gate"
																}

															}
, 															{
																"box" : 																{
																	"fontname" : "Arial",
																	"fontsize" : 9.0,
																	"id" : "obj-2",
																	"maxclass" : "newobj",
																	"numinlets" : 1,
																	"numoutlets" : 3,
																	"outlettype" : [ "bang", "clear", "bang" ],
																	"patching_rect" : [ 316.0, 232.0, 111.0, 19.0 ],
																	"style" : "",
																	"text" : "t b clear b"
																}

															}
, 															{
																"box" : 																{
																	"fontname" : "Arial",
																	"fontsize" : 9.0,
																	"id" : "obj-4",
																	"maxclass" : "newobj",
																	"numinlets" : 3,
																	"numoutlets" : 3,
																	"outlettype" : [ "bang", "bang", "" ],
																	"patching_rect" : [ 263.0, 208.0, 125.0, 19.0 ],
																	"style" : "",
																	"text" : "sel 0 1"
																}

															}
, 															{
																"box" : 																{
																	"id" : "obj-25",
																	"maxclass" : "toggle",
																	"numinlets" : 1,
																	"numoutlets" : 1,
																	"outlettype" : [ "int" ],
																	"parameter_enable" : 0,
																	"patching_rect" : [ 223.0, 164.0, 15.0, 15.0 ],
																	"style" : ""
																}

															}
 ],
														"lines" : [ 															{
																"patchline" : 																{
																	"destination" : [ "obj-41", 1 ],
																	"disabled" : 0,
																	"hidden" : 0,
																	"source" : [ "obj-192", 0 ]
																}

															}
, 															{
																"patchline" : 																{
																	"destination" : [ "obj-63", 0 ],
																	"disabled" : 0,
																	"hidden" : 0,
																	"source" : [ "obj-193", 0 ]
																}

															}
, 															{
																"patchline" : 																{
																	"destination" : [ "obj-195", 0 ],
																	"disabled" : 0,
																	"hidden" : 0,
																	"source" : [ "obj-2", 1 ]
																}

															}
, 															{
																"patchline" : 																{
																	"destination" : [ "obj-12", 0 ],
																	"disabled" : 0,
																	"hidden" : 0,
																	"source" : [ "obj-25", 0 ]
																}

															}
, 															{
																"patchline" : 																{
																	"destination" : [ "obj-42", 0 ],
																	"disabled" : 0,
																	"hidden" : 0,
																	"midpoints" : [ 232.0, 182.0, 232.5, 182.0 ],
																	"source" : [ "obj-25", 0 ]
																}

															}
, 															{
																"patchline" : 																{
																	"destination" : [ "obj-2", 0 ],
																	"disabled" : 0,
																	"hidden" : 0,
																	"source" : [ "obj-4", 1 ]
																}

															}
, 															{
																"patchline" : 																{
																	"destination" : [ "obj-194", 0 ],
																	"disabled" : 0,
																	"hidden" : 0,
																	"source" : [ "obj-41", 0 ]
																}

															}
, 															{
																"patchline" : 																{
																	"destination" : [ "obj-4", 0 ],
																	"disabled" : 0,
																	"hidden" : 0,
																	"source" : [ "obj-42", 1 ]
																}

															}
, 															{
																"patchline" : 																{
																	"destination" : [ "obj-41", 0 ],
																	"disabled" : 0,
																	"hidden" : 0,
																	"midpoints" : [ 232.5, 226.5, 61.5, 226.5 ],
																	"source" : [ "obj-42", 0 ]
																}

															}
, 															{
																"patchline" : 																{
																	"destination" : [ "obj-196", 0 ],
																	"disabled" : 0,
																	"hidden" : 0,
																	"source" : [ "obj-63", 0 ]
																}

															}
, 															{
																"patchline" : 																{
																	"destination" : [ "obj-25", 0 ],
																	"disabled" : 0,
																	"hidden" : 0,
																	"source" : [ "obj-63", 1 ]
																}

															}
 ]
													}
,
													"patching_rect" : [ 55.0, 111.0, 116.0, 20.0 ],
													"saved_object_attributes" : 													{
														"description" : "",
														"digest" : "",
														"globalpatchername" : "",
														"style" : "",
														"tags" : ""
													}
,
													"style" : "",
													"text" : "p capture_velocity_data"
												}

											}
, 											{
												"box" : 												{
													"fontname" : "Arial",
													"fontsize" : 10.0,
													"id" : "obj-5",
													"maxclass" : "newobj",
													"numinlets" : 3,
													"numoutlets" : 1,
													"outlettype" : [ "" ],
													"patcher" : 													{
														"fileversion" : 1,
														"appversion" : 														{
															"major" : 7,
															"minor" : 1,
															"revision" : 0,
															"architecture" : "x86",
															"modernui" : 1
														}
,
														"rect" : [ 1188.0, 443.0, 218.0, 179.0 ],
														"bglocked" : 0,
														"openinpresentation" : 0,
														"default_fontsize" : 11.0,
														"default_fontface" : 0,
														"default_fontname" : "Arial",
														"gridonopen" : 1,
														"gridsize" : [ 15.0, 15.0 ],
														"gridsnaponopen" : 1,
														"objectsnaponopen" : 1,
														"statusbarvisible" : 2,
														"toolbarvisible" : 1,
														"lefttoolbarpinned" : 0,
														"toptoolbarpinned" : 0,
														"righttoolbarpinned" : 0,
														"bottomtoolbarpinned" : 0,
														"toolbars_unpinned_last_save" : 0,
														"tallnewobj" : 0,
														"boxanimatetime" : 200,
														"enablehscroll" : 1,
														"enablevscroll" : 1,
														"devicewidth" : 0.0,
														"description" : "",
														"digest" : "",
														"tags" : "",
														"style" : "",
														"subpatcher_template" : "",
														"boxes" : [ 															{
																"box" : 																{
																	"comment" : "",
																	"id" : "obj-1",
																	"maxclass" : "inlet",
																	"numinlets" : 0,
																	"numoutlets" : 1,
																	"outlettype" : [ "" ],
																	"patching_rect" : [ 90.0, 11.0, 25.0, 25.0 ],
																	"style" : ""
																}

															}
, 															{
																"box" : 																{
																	"fontname" : "Arial",
																	"fontsize" : 9.0,
																	"id" : "obj-99",
																	"maxclass" : "newobj",
																	"numinlets" : 2,
																	"numoutlets" : 1,
																	"outlettype" : [ "bang" ],
																	"patching_rect" : [ 48.0, 76.0, 51.0, 19.0 ],
																	"style" : "",
																	"text" : "metro 100"
																}

															}
, 															{
																"box" : 																{
																	"fontname" : "Arial",
																	"fontsize" : 9.0,
																	"id" : "obj-100",
																	"maxclass" : "newobj",
																	"numinlets" : 2,
																	"numoutlets" : 2,
																	"outlettype" : [ "", "" ],
																	"patching_rect" : [ 48.0, 96.0, 84.0, 19.0 ],
																	"style" : "",
																	"text" : "zl reg"
																}

															}
, 															{
																"box" : 																{
																	"comment" : "",
																	"id" : "obj-159",
																	"maxclass" : "inlet",
																	"numinlets" : 0,
																	"numoutlets" : 1,
																	"outlettype" : [ "int" ],
																	"patching_rect" : [ 48.0, 11.0, 25.0, 25.0 ],
																	"style" : ""
																}

															}
, 															{
																"box" : 																{
																	"comment" : "",
																	"id" : "obj-161",
																	"maxclass" : "inlet",
																	"numinlets" : 0,
																	"numoutlets" : 1,
																	"outlettype" : [ "" ],
																	"patching_rect" : [ 8.0, 11.0, 25.0, 25.0 ],
																	"style" : ""
																}

															}
, 															{
																"box" : 																{
																	"comment" : "",
																	"id" : "obj-162",
																	"maxclass" : "outlet",
																	"numinlets" : 1,
																	"numoutlets" : 0,
																	"patching_rect" : [ 48.0, 121.0, 25.0, 25.0 ],
																	"style" : ""
																}

															}
 ],
														"lines" : [ 															{
																"patchline" : 																{
																	"destination" : [ "obj-99", 1 ],
																	"disabled" : 0,
																	"hidden" : 0,
																	"source" : [ "obj-1", 0 ]
																}

															}
, 															{
																"patchline" : 																{
																	"destination" : [ "obj-162", 0 ],
																	"disabled" : 0,
																	"hidden" : 0,
																	"source" : [ "obj-100", 0 ]
																}

															}
, 															{
																"patchline" : 																{
																	"destination" : [ "obj-99", 0 ],
																	"disabled" : 0,
																	"hidden" : 0,
																	"source" : [ "obj-159", 0 ]
																}

															}
, 															{
																"patchline" : 																{
																	"destination" : [ "obj-100", 1 ],
																	"disabled" : 0,
																	"hidden" : 0,
																	"midpoints" : [ 17.5, 65.5, 122.5, 65.5 ],
																	"source" : [ "obj-161", 0 ]
																}

															}
, 															{
																"patchline" : 																{
																	"destination" : [ "obj-100", 0 ],
																	"disabled" : 0,
																	"hidden" : 0,
																	"source" : [ "obj-99", 0 ]
																}

															}
 ]
													}
,
													"patching_rect" : [ 55.0, 162.5, 135.0, 20.0 ],
													"saved_object_attributes" : 													{
														"description" : "",
														"digest" : "",
														"fontsize" : 11.0,
														"globalpatchername" : "",
														"style" : "",
														"tags" : ""
													}
,
													"style" : "",
													"text" : "p resample"
												}

											}
, 											{
												"box" : 												{
													"comment" : "",
													"id" : "obj-6",
													"maxclass" : "outlet",
													"numinlets" : 1,
													"numoutlets" : 0,
													"patching_rect" : [ 55.0, 240.5, 25.0, 25.0 ],
													"style" : ""
												}

											}
, 											{
												"box" : 												{
													"comment" : "",
													"id" : "obj-1",
													"maxclass" : "inlet",
													"numinlets" : 0,
													"numoutlets" : 1,
													"outlettype" : [ "float" ],
													"patching_rect" : [ 55.0, 51.0, 25.0, 25.0 ],
													"style" : ""
												}

											}
, 											{
												"box" : 												{
													"comment" : "",
													"id" : "obj-32",
													"maxclass" : "inlet",
													"numinlets" : 0,
													"numoutlets" : 1,
													"outlettype" : [ "" ],
													"patching_rect" : [ 152.0, 51.0, 25.0, 25.0 ],
													"style" : ""
												}

											}
 ],
										"lines" : [ 											{
												"patchline" : 												{
													"destination" : [ "obj-4", 0 ],
													"disabled" : 0,
													"hidden" : 0,
													"source" : [ "obj-1", 0 ],
													"watchpoint_flags" : 1,
													"watchpoint_id" : 1
												}

											}
, 											{
												"patchline" : 												{
													"destination" : [ "obj-5", 2 ],
													"disabled" : 0,
													"hidden" : 0,
													"source" : [ "obj-3", 0 ]
												}

											}
, 											{
												"patchline" : 												{
													"destination" : [ "obj-4", 1 ],
													"disabled" : 0,
													"hidden" : 0,
													"source" : [ "obj-32", 0 ]
												}

											}
, 											{
												"patchline" : 												{
													"destination" : [ "obj-5", 1 ],
													"disabled" : 0,
													"hidden" : 0,
													"source" : [ "obj-4", 2 ]
												}

											}
, 											{
												"patchline" : 												{
													"destination" : [ "obj-5", 0 ],
													"disabled" : 0,
													"hidden" : 0,
													"source" : [ "obj-4", 0 ]
												}

											}
, 											{
												"patchline" : 												{
													"destination" : [ "obj-6", 0 ],
													"disabled" : 0,
													"hidden" : 0,
													"source" : [ "obj-5", 0 ]
												}

											}
 ]
									}
,
									"patching_rect" : [ 435.0, 299.5, 104.0, 20.0 ],
									"saved_object_attributes" : 									{
										"description" : "",
										"digest" : "",
										"globalpatchername" : "",
										"style" : "",
										"tags" : ""
									}
,
									"style" : "",
									"text" : "p capture_resample2",
									"textcolor" : [ 0.497009, 0.497009, 0.497009, 1.0 ]
								}

							}
, 							{
								"box" : 								{
									"id" : "obj-13",
									"maxclass" : "newobj",
									"numinlets" : 1,
									"numoutlets" : 2,
									"outlettype" : [ "", "" ],
									"patching_rect" : [ 69.0, 182.5, 73.0, 22.0 ],
									"style" : "",
									"text" : "mxj number"
								}

							}
, 							{
								"box" : 								{
									"id" : "obj-8",
									"maxclass" : "newobj",
									"numinlets" : 1,
									"numoutlets" : 2,
									"outlettype" : [ "", "" ],
									"patching_rect" : [ 31.0, 551.0, 114.0, 22.0 ],
									"style" : "",
									"text" : "mxj quickie number"
								}

							}
, 							{
								"box" : 								{
									"id" : "obj-7",
									"linecount" : 2,
									"maxclass" : "comment",
									"numinlets" : 1,
									"numoutlets" : 0,
									"patching_rect" : [ 525.5, 154.0, 116.0, 33.0 ],
									"style" : "",
									"text" : "output right hand y axis velocity"
								}

							}
, 							{
								"box" : 								{
									"id" : "obj-31",
									"maxclass" : "newobj",
									"numinlets" : 1,
									"numoutlets" : 3,
									"outlettype" : [ "float", "float", "float" ],
									"patching_rect" : [ 74.0, 80.0, 69.0, 22.0 ],
									"style" : "",
									"text" : "unpack f f f"
								}

							}
, 							{
								"box" : 								{
									"id" : "obj-24",
									"maxclass" : "newobj",
									"numinlets" : 1,
									"numoutlets" : 2,
									"outlettype" : [ "bang", "float" ],
									"patching_rect" : [ 69.0, 208.5, 31.0, 22.0 ],
									"style" : "",
									"text" : "t b f"
								}

							}
, 							{
								"box" : 								{
									"id" : "obj-21",
									"maxclass" : "message",
									"numinlets" : 2,
									"numoutlets" : 1,
									"outlettype" : [ "" ],
									"patching_rect" : [ 69.0, 251.0, 50.0, 22.0 ],
									"style" : "",
									"text" : "1."
								}

							}
, 							{
								"box" : 								{
									"fontsize" : 18.0,
									"format" : 6,
									"id" : "obj-19",
									"maxclass" : "flonum",
									"numinlets" : 1,
									"numoutlets" : 2,
									"outlettype" : [ "", "bang" ],
									"parameter_enable" : 0,
									"patching_rect" : [ 69.0, 121.0, 71.0, 29.0 ],
									"style" : ""
								}

							}
, 							{
								"box" : 								{
									"id" : "obj-17",
									"maxclass" : "newobj",
									"numinlets" : 1,
									"numoutlets" : 1,
									"outlettype" : [ "" ],
									"patching_rect" : [ 69.0, 154.0, 219.0, 22.0 ],
									"style" : "",
									"text" : "if $f1 > -285. && $f1 < 0. then 1. else 0."
								}

							}
, 							{
								"box" : 								{
									"id" : "obj-12",
									"linecount" : 2,
									"maxclass" : "comment",
									"numinlets" : 1,
									"numoutlets" : 0,
									"patching_rect" : [ 74.0, 4.0, 105.0, 33.0 ],
									"style" : "",
									"text" : "left hand y axis position: control "
								}

							}
, 							{
								"box" : 								{
									"id" : "obj-11",
									"maxclass" : "newobj",
									"numinlets" : 2,
									"numoutlets" : 0,
									"patcher" : 									{
										"fileversion" : 1,
										"appversion" : 										{
											"major" : 7,
											"minor" : 1,
											"revision" : 0,
											"architecture" : "x86",
											"modernui" : 1
										}
,
										"rect" : [ 641.0, 102.0, 572.0, 480.0 ],
										"bglocked" : 0,
										"openinpresentation" : 0,
										"default_fontsize" : 12.0,
										"default_fontface" : 0,
										"default_fontname" : "Arial",
										"gridonopen" : 1,
										"gridsize" : [ 15.0, 15.0 ],
										"gridsnaponopen" : 1,
										"objectsnaponopen" : 1,
										"statusbarvisible" : 2,
										"toolbarvisible" : 1,
										"lefttoolbarpinned" : 0,
										"toptoolbarpinned" : 0,
										"righttoolbarpinned" : 0,
										"bottomtoolbarpinned" : 0,
										"toolbars_unpinned_last_save" : 0,
										"tallnewobj" : 0,
										"boxanimatetime" : 200,
										"enablehscroll" : 1,
										"enablevscroll" : 1,
										"devicewidth" : 0.0,
										"description" : "",
										"digest" : "",
										"tags" : "",
										"style" : "",
										"subpatcher_template" : "",
										"boxes" : [ 											{
												"box" : 												{
													"comment" : "",
													"id" : "obj-2",
													"maxclass" : "inlet",
													"numinlets" : 0,
													"numoutlets" : 1,
													"outlettype" : [ "" ],
													"patching_rect" : [ 172.0, 61.0, 30.0, 30.0 ],
													"style" : ""
												}

											}
, 											{
												"box" : 												{
													"id" : "obj-14",
													"maxclass" : "button",
													"numinlets" : 1,
													"numoutlets" : 1,
													"outlettype" : [ "bang" ],
													"patching_rect" : [ 333.0, 242.0, 24.0, 24.0 ],
													"style" : ""
												}

											}
, 											{
												"box" : 												{
													"id" : "obj-10",
													"maxclass" : "newobj",
													"numinlets" : 1,
													"numoutlets" : 2,
													"outlettype" : [ "float", "bang" ],
													"patching_rect" : [ 172.0, 140.0, 31.0, 22.0 ],
													"style" : "",
													"text" : "t f b"
												}

											}
, 											{
												"box" : 												{
													"id" : "obj-8",
													"maxclass" : "newobj",
													"numinlets" : 2,
													"numoutlets" : 1,
													"outlettype" : [ "" ],
													"patching_rect" : [ 80.0, 176.0, 49.0, 22.0 ],
													"style" : "",
													"text" : "pack f f"
												}

											}
, 											{
												"box" : 												{
													"format" : 6,
													"id" : "obj-6",
													"maxclass" : "flonum",
													"numinlets" : 1,
													"numoutlets" : 2,
													"outlettype" : [ "", "bang" ],
													"parameter_enable" : 0,
													"patching_rect" : [ 172.0, 110.0, 50.0, 22.0 ],
													"style" : ""
												}

											}
, 											{
												"box" : 												{
													"id" : "obj-5",
													"maxclass" : "newobj",
													"numinlets" : 1,
													"numoutlets" : 0,
													"patching_rect" : [ 80.0, 278.0, 141.0, 22.0 ],
													"style" : "",
													"text" : "s HeadFollowHandMess"
												}

											}
, 											{
												"box" : 												{
													"format" : 6,
													"id" : "obj-11",
													"maxclass" : "flonum",
													"numinlets" : 1,
													"numoutlets" : 2,
													"outlettype" : [ "", "bang" ],
													"parameter_enable" : 0,
													"patching_rect" : [ 80.0, 110.0, 50.0, 22.0 ],
													"style" : ""
												}

											}
, 											{
												"box" : 												{
													"id" : "obj-7",
													"maxclass" : "message",
													"numinlets" : 2,
													"numoutlets" : 1,
													"outlettype" : [ "" ],
													"patching_rect" : [ 80.0, 224.0, 95.0, 22.0 ],
													"style" : "",
													"text" : "/neckTilt2 $1 $2"
												}

											}
, 											{
												"box" : 												{
													"comment" : "",
													"id" : "obj-1",
													"maxclass" : "inlet",
													"numinlets" : 0,
													"numoutlets" : 1,
													"outlettype" : [ "" ],
													"patching_rect" : [ 80.0, 61.0, 30.0, 30.0 ],
													"style" : ""
												}

											}
 ],
										"lines" : [ 											{
												"patchline" : 												{
													"destination" : [ "obj-11", 0 ],
													"disabled" : 0,
													"hidden" : 0,
													"source" : [ "obj-1", 0 ]
												}

											}
, 											{
												"patchline" : 												{
													"destination" : [ "obj-8", 0 ],
													"disabled" : 0,
													"hidden" : 0,
													"source" : [ "obj-10", 1 ]
												}

											}
, 											{
												"patchline" : 												{
													"destination" : [ "obj-8", 1 ],
													"disabled" : 0,
													"hidden" : 0,
													"source" : [ "obj-10", 0 ]
												}

											}
, 											{
												"patchline" : 												{
													"destination" : [ "obj-8", 0 ],
													"disabled" : 0,
													"hidden" : 0,
													"source" : [ "obj-11", 0 ]
												}

											}
, 											{
												"patchline" : 												{
													"destination" : [ "obj-6", 0 ],
													"disabled" : 0,
													"hidden" : 0,
													"source" : [ "obj-2", 0 ]
												}

											}
, 											{
												"patchline" : 												{
													"destination" : [ "obj-10", 0 ],
													"disabled" : 0,
													"hidden" : 0,
													"source" : [ "obj-6", 0 ]
												}

											}
, 											{
												"patchline" : 												{
													"destination" : [ "obj-14", 0 ],
													"disabled" : 0,
													"hidden" : 0,
													"source" : [ "obj-7", 0 ]
												}

											}
, 											{
												"patchline" : 												{
													"destination" : [ "obj-5", 0 ],
													"disabled" : 0,
													"hidden" : 0,
													"source" : [ "obj-7", 0 ]
												}

											}
, 											{
												"patchline" : 												{
													"destination" : [ "obj-7", 0 ],
													"disabled" : 0,
													"hidden" : 0,
													"source" : [ "obj-8", 0 ]
												}

											}
 ]
									}
,
									"patching_rect" : [ 275.0, 418.0, 100.0, 22.0 ],
									"saved_object_attributes" : 									{
										"description" : "",
										"digest" : "",
										"globalpatchername" : "",
										"style" : "",
										"tags" : ""
									}
,
									"style" : "",
									"text" : "p toShimonHead"
								}

							}
, 							{
								"box" : 								{
									"comment" : "",
									"id" : "obj-2",
									"maxclass" : "inlet",
									"numinlets" : 0,
									"numoutlets" : 1,
									"outlettype" : [ "" ],
									"patching_rect" : [ 74.0, 39.0, 30.0, 30.0 ],
									"style" : ""
								}

							}
, 							{
								"box" : 								{
									"bgcolor" : [ 1.0, 1.0, 1.0, 1.0 ],
									"color" : [ 0.8, 0.839216, 0.709804, 0.51 ],
									"fontname" : "Arial",
									"fontsize" : 10.0,
									"id" : "obj-35",
									"maxclass" : "newobj",
									"numinlets" : 3,
									"numoutlets" : 2,
									"outlettype" : [ "", "" ],
									"patcher" : 									{
										"fileversion" : 1,
										"appversion" : 										{
											"major" : 7,
											"minor" : 1,
											"revision" : 0,
											"architecture" : "x86",
											"modernui" : 1
										}
,
										"rect" : [ 98.0, 79.0, 640.0, 480.0 ],
										"bglocked" : 0,
										"openinpresentation" : 0,
										"default_fontsize" : 12.0,
										"default_fontface" : 0,
										"default_fontname" : "Arial",
										"gridonopen" : 1,
										"gridsize" : [ 15.0, 15.0 ],
										"gridsnaponopen" : 1,
										"objectsnaponopen" : 1,
										"statusbarvisible" : 2,
										"toolbarvisible" : 1,
										"lefttoolbarpinned" : 0,
										"toptoolbarpinned" : 0,
										"righttoolbarpinned" : 0,
										"bottomtoolbarpinned" : 0,
										"toolbars_unpinned_last_save" : 0,
										"tallnewobj" : 0,
										"boxanimatetime" : 200,
										"enablehscroll" : 1,
										"enablevscroll" : 1,
										"devicewidth" : 0.0,
										"description" : "",
										"digest" : "",
										"tags" : "",
										"style" : "",
										"subpatcher_template" : "",
										"boxes" : [ 											{
												"box" : 												{
													"id" : "obj-13",
													"maxclass" : "newobj",
													"numinlets" : 6,
													"numoutlets" : 1,
													"outlettype" : [ "" ],
													"patching_rect" : [ 519.0, 243.0, 95.0, 22.0 ],
													"style" : "",
													"text" : "scale 20 51. 5 9"
												}

											}
, 											{
												"box" : 												{
													"id" : "obj-2",
													"maxclass" : "newobj",
													"numinlets" : 6,
													"numoutlets" : 1,
													"outlettype" : [ "" ],
													"patching_rect" : [ 300.0, 261.0, 105.0, 22.0 ],
													"style" : "",
													"text" : "scale 20. 50. 30 5"
												}

											}
, 											{
												"box" : 												{
													"comment" : "",
													"id" : "obj-10",
													"maxclass" : "outlet",
													"numinlets" : 1,
													"numoutlets" : 0,
													"patching_rect" : [ 492.0, 314.0, 30.0, 30.0 ],
													"style" : ""
												}

											}
, 											{
												"box" : 												{
													"id" : "obj-20",
													"linecount" : 3,
													"maxclass" : "comment",
													"numinlets" : 1,
													"numoutlets" : 0,
													"patching_rect" : [ 233.5, 429.5, 150.0, 47.0 ],
													"style" : "",
													"text" : "only output value when the difference of two values greater than 2.0\n"
												}

											}
, 											{
												"box" : 												{
													"id" : "obj-11",
													"linecount" : 3,
													"maxclass" : "comment",
													"numinlets" : 1,
													"numoutlets" : 0,
													"patching_rect" : [ 233.5, 359.5, 150.0, 47.0 ],
													"style" : "",
													"text" : "only output value when the difference of two values greater than 0.15\n"
												}

											}
, 											{
												"box" : 												{
													"id" : "obj-18",
													"maxclass" : "message",
													"numinlets" : 2,
													"numoutlets" : 1,
													"outlettype" : [ "" ],
													"patching_rect" : [ 146.0, 300.0, 110.0, 22.0 ],
													"style" : "",
													"text" : "0.3"
												}

											}
, 											{
												"box" : 												{
													"id" : "obj-16",
													"maxclass" : "newobj",
													"numinlets" : 1,
													"numoutlets" : 2,
													"outlettype" : [ "", "" ],
													"patching_rect" : [ 492.0, 270.5, 80.0, 22.0 ],
													"style" : "",
													"text" : "mxj number3"
												}

											}
, 											{
												"box" : 												{
													"id" : "obj-15",
													"maxclass" : "newobj",
													"numinlets" : 1,
													"numoutlets" : 2,
													"outlettype" : [ "", "" ],
													"patching_rect" : [ 110.5, 442.0, 121.0, 22.0 ],
													"style" : "",
													"text" : "mxj quickie number3"
												}

											}
, 											{
												"box" : 												{
													"format" : 6,
													"id" : "obj-14",
													"maxclass" : "flonum",
													"numinlets" : 1,
													"numoutlets" : 2,
													"outlettype" : [ "", "bang" ],
													"parameter_enable" : 0,
													"patching_rect" : [ 512.0, 108.0, 50.0, 22.0 ],
													"style" : ""
												}

											}
, 											{
												"box" : 												{
													"id" : "obj-7",
													"maxclass" : "newobj",
													"numinlets" : 6,
													"numoutlets" : 1,
													"outlettype" : [ "" ],
													"patching_rect" : [ 492.0, 216.0, 112.0, 22.0 ],
													"style" : "",
													"text" : "scale 20. 51. 9. 14."
												}

											}
, 											{
												"box" : 												{
													"id" : "obj-29",
													"maxclass" : "newobj",
													"numinlets" : 1,
													"numoutlets" : 1,
													"outlettype" : [ "" ],
													"patching_rect" : [ 407.0, 156.0, 180.0, 22.0 ],
													"style" : "",
													"text" : "if $f1 > 20 && $f1 < 51. then $f1"
												}

											}
, 											{
												"box" : 												{
													"id" : "obj-25",
													"maxclass" : "newobj",
													"numinlets" : 1,
													"numoutlets" : 2,
													"outlettype" : [ "", "" ],
													"patching_rect" : [ 74.0, 235.0, 80.0, 22.0 ],
													"style" : "",
													"text" : "mxj number2"
												}

											}
, 											{
												"box" : 												{
													"id" : "obj-24",
													"maxclass" : "newobj",
													"numinlets" : 1,
													"numoutlets" : 2,
													"outlettype" : [ "", "" ],
													"patching_rect" : [ 110.5, 372.0, 121.0, 22.0 ],
													"style" : "",
													"text" : "mxj quickie number2"
												}

											}
, 											{
												"box" : 												{
													"id" : "obj-19",
													"maxclass" : "newobj",
													"numinlets" : 6,
													"numoutlets" : 1,
													"outlettype" : [ "" ],
													"patching_rect" : [ 300.0, 221.0, 112.0, 22.0 ],
													"style" : "",
													"text" : "scale 20. 50. 40 15"
												}

											}
, 											{
												"box" : 												{
													"format" : 6,
													"id" : "obj-12",
													"maxclass" : "flonum",
													"numinlets" : 1,
													"numoutlets" : 2,
													"outlettype" : [ "", "bang" ],
													"parameter_enable" : 0,
													"patching_rect" : [ 308.0, 140.5, 50.0, 22.0 ],
													"style" : ""
												}

											}
, 											{
												"box" : 												{
													"id" : "obj-9",
													"maxclass" : "newobj",
													"numinlets" : 1,
													"numoutlets" : 1,
													"outlettype" : [ "int" ],
													"patching_rect" : [ 308.0, 100.5, 30.0, 22.0 ],
													"style" : "",
													"text" : "abs"
												}

											}
, 											{
												"box" : 												{
													"comment" : "",
													"id" : "obj-8",
													"maxclass" : "inlet",
													"numinlets" : 0,
													"numoutlets" : 1,
													"outlettype" : [ "" ],
													"patching_rect" : [ 308.0, 56.0, 30.0, 30.0 ],
													"style" : ""
												}

											}
, 											{
												"box" : 												{
													"id" : "obj-3",
													"maxclass" : "newobj",
													"numinlets" : 1,
													"numoutlets" : 1,
													"outlettype" : [ "" ],
													"patching_rect" : [ 190.0, 132.0, 85.0, 22.0 ],
													"style" : "",
													"text" : "loadmess 100"
												}

											}
, 											{
												"box" : 												{
													"fontname" : "Arial",
													"fontsize" : 10.0,
													"id" : "obj-4",
													"maxclass" : "newobj",
													"numinlets" : 2,
													"numoutlets" : 3,
													"outlettype" : [ "", "clear", "int" ],
													"patcher" : 													{
														"fileversion" : 1,
														"appversion" : 														{
															"major" : 7,
															"minor" : 1,
															"revision" : 0,
															"architecture" : "x86",
															"modernui" : 1
														}
,
														"rect" : [ 747.0, 81.0, 640.0, 480.0 ],
														"bglocked" : 0,
														"openinpresentation" : 0,
														"default_fontsize" : 12.0,
														"default_fontface" : 0,
														"default_fontname" : "Arial",
														"gridonopen" : 1,
														"gridsize" : [ 15.0, 15.0 ],
														"gridsnaponopen" : 1,
														"objectsnaponopen" : 1,
														"statusbarvisible" : 2,
														"toolbarvisible" : 1,
														"lefttoolbarpinned" : 0,
														"toptoolbarpinned" : 0,
														"righttoolbarpinned" : 0,
														"bottomtoolbarpinned" : 0,
														"toolbars_unpinned_last_save" : 0,
														"tallnewobj" : 0,
														"boxanimatetime" : 200,
														"enablehscroll" : 1,
														"enablevscroll" : 1,
														"devicewidth" : 0.0,
														"description" : "",
														"digest" : "",
														"tags" : "",
														"style" : "",
														"subpatcher_template" : "",
														"boxes" : [ 															{
																"box" : 																{
																	"id" : "obj-3",
																	"maxclass" : "newobj",
																	"numinlets" : 5,
																	"numoutlets" : 1,
																	"outlettype" : [ "" ],
																	"patching_rect" : [ 398.0, 338.5, 141.0, 22.0 ],
																	"style" : "",
																	"text" : "zmap -100. 150. -0.4 0.4"
																}

															}
, 															{
																"box" : 																{
																	"id" : "obj-6",
																	"linecount" : 2,
																	"maxclass" : "comment",
																	"numinlets" : 1,
																	"numoutlets" : 0,
																	"patching_rect" : [ 244.0, 333.0, 150.0, 33.0 ],
																	"style" : "",
																	"text" : "scale the y axis to the head movment range"
																}

															}
, 															{
																"box" : 																{
																	"format" : 6,
																	"id" : "obj-5",
																	"maxclass" : "flonum",
																	"numinlets" : 1,
																	"numoutlets" : 2,
																	"outlettype" : [ "", "bang" ],
																	"parameter_enable" : 0,
																	"patching_rect" : [ 7.0, 378.0, 50.0, 22.0 ],
																	"style" : ""
																}

															}
, 															{
																"box" : 																{
																	"format" : 6,
																	"id" : "obj-8",
																	"maxclass" : "flonum",
																	"numinlets" : 1,
																	"numoutlets" : 2,
																	"outlettype" : [ "", "bang" ],
																	"parameter_enable" : 0,
																	"patching_rect" : [ 126.0, 292.0, 50.0, 22.0 ],
																	"style" : ""
																}

															}
, 															{
																"box" : 																{
																	"id" : "obj-12",
																	"maxclass" : "button",
																	"numinlets" : 1,
																	"numoutlets" : 1,
																	"outlettype" : [ "bang" ],
																	"patching_rect" : [ 326.0, 154.0, 24.0, 24.0 ],
																	"style" : ""
																}

															}
, 															{
																"box" : 																{
																	"id" : "obj-1",
																	"maxclass" : "newobj",
																	"numinlets" : 5,
																	"numoutlets" : 1,
																	"outlettype" : [ "" ],
																	"patching_rect" : [ 52.0, 333.0, 135.0, 22.0 ],
																	"style" : "",
																	"text" : "zmap -130. -20 -0.5 0.3"
																}

															}
, 															{
																"box" : 																{
																	"fontname" : "Arial",
																	"fontsize" : 10.0,
																	"id" : "obj-63",
																	"maxclass" : "newobj",
																	"numinlets" : 1,
																	"numoutlets" : 2,
																	"outlettype" : [ "int", "int" ],
																	"patching_rect" : [ 204.0, 112.0, 29.0, 20.0 ],
																	"style" : "",
																	"text" : "t i i"
																}

															}
, 															{
																"box" : 																{
																	"comment" : "",
																	"id" : "obj-192",
																	"maxclass" : "inlet",
																	"numinlets" : 0,
																	"numoutlets" : 1,
																	"outlettype" : [ "float" ],
																	"patching_rect" : [ 62.0, 40.0, 25.0, 25.0 ],
																	"style" : ""
																}

															}
, 															{
																"box" : 																{
																	"comment" : "",
																	"id" : "obj-193",
																	"maxclass" : "inlet",
																	"numinlets" : 0,
																	"numoutlets" : 1,
																	"outlettype" : [ "" ],
																	"patching_rect" : [ 204.0, 40.0, 25.0, 25.0 ],
																	"style" : ""
																}

															}
, 															{
																"box" : 																{
																	"comment" : "",
																	"id" : "obj-194",
																	"maxclass" : "outlet",
																	"numinlets" : 1,
																	"numoutlets" : 0,
																	"patching_rect" : [ 52.0, 411.0, 25.0, 25.0 ],
																	"style" : ""
																}

															}
, 															{
																"box" : 																{
																	"comment" : "",
																	"id" : "obj-195",
																	"maxclass" : "outlet",
																	"numinlets" : 1,
																	"numoutlets" : 0,
																	"patching_rect" : [ 97.0, 411.0, 25.0, 25.0 ],
																	"style" : ""
																}

															}
, 															{
																"box" : 																{
																	"comment" : "",
																	"id" : "obj-196",
																	"maxclass" : "outlet",
																	"numinlets" : 1,
																	"numoutlets" : 0,
																	"patching_rect" : [ 204.0, 411.0, 25.0, 25.0 ],
																	"style" : ""
																}

															}
, 															{
																"box" : 																{
																	"fontname" : "Arial",
																	"fontsize" : 9.0,
																	"id" : "obj-42",
																	"maxclass" : "newobj",
																	"numinlets" : 1,
																	"numoutlets" : 2,
																	"outlettype" : [ "int", "int" ],
																	"patching_rect" : [ 223.0, 186.0, 59.0, 19.0 ],
																	"style" : "",
																	"text" : "t i i"
																}

															}
, 															{
																"box" : 																{
																	"fontname" : "Arial",
																	"fontsize" : 9.0,
																	"id" : "obj-41",
																	"maxclass" : "newobj",
																	"numinlets" : 2,
																	"numoutlets" : 1,
																	"outlettype" : [ "" ],
																	"patching_rect" : [ 52.0, 237.0, 29.0, 19.0 ],
																	"style" : "",
																	"text" : "gate"
																}

															}
, 															{
																"box" : 																{
																	"fontname" : "Arial",
																	"fontsize" : 9.0,
																	"id" : "obj-2",
																	"maxclass" : "newobj",
																	"numinlets" : 1,
																	"numoutlets" : 3,
																	"outlettype" : [ "bang", "clear", "bang" ],
																	"patching_rect" : [ 316.0, 232.0, 111.0, 19.0 ],
																	"style" : "",
																	"text" : "t b clear b"
																}

															}
, 															{
																"box" : 																{
																	"fontname" : "Arial",
																	"fontsize" : 9.0,
																	"id" : "obj-4",
																	"maxclass" : "newobj",
																	"numinlets" : 3,
																	"numoutlets" : 3,
																	"outlettype" : [ "bang", "bang", "" ],
																	"patching_rect" : [ 263.0, 208.0, 125.0, 19.0 ],
																	"style" : "",
																	"text" : "sel 0 1"
																}

															}
, 															{
																"box" : 																{
																	"id" : "obj-25",
																	"maxclass" : "toggle",
																	"numinlets" : 1,
																	"numoutlets" : 1,
																	"outlettype" : [ "int" ],
																	"parameter_enable" : 0,
																	"patching_rect" : [ 223.0, 164.0, 15.0, 15.0 ],
																	"style" : ""
																}

															}
 ],
														"lines" : [ 															{
																"patchline" : 																{
																	"destination" : [ "obj-194", 0 ],
																	"disabled" : 0,
																	"hidden" : 0,
																	"source" : [ "obj-1", 0 ]
																}

															}
, 															{
																"patchline" : 																{
																	"destination" : [ "obj-5", 0 ],
																	"disabled" : 0,
																	"hidden" : 0,
																	"source" : [ "obj-1", 0 ]
																}

															}
, 															{
																"patchline" : 																{
																	"destination" : [ "obj-41", 1 ],
																	"disabled" : 0,
																	"hidden" : 0,
																	"source" : [ "obj-192", 0 ]
																}

															}
, 															{
																"patchline" : 																{
																	"destination" : [ "obj-63", 0 ],
																	"disabled" : 0,
																	"hidden" : 0,
																	"source" : [ "obj-193", 0 ]
																}

															}
, 															{
																"patchline" : 																{
																	"destination" : [ "obj-195", 0 ],
																	"disabled" : 0,
																	"hidden" : 0,
																	"source" : [ "obj-2", 1 ]
																}

															}
, 															{
																"patchline" : 																{
																	"destination" : [ "obj-12", 0 ],
																	"disabled" : 0,
																	"hidden" : 0,
																	"source" : [ "obj-25", 0 ]
																}

															}
, 															{
																"patchline" : 																{
																	"destination" : [ "obj-42", 0 ],
																	"disabled" : 0,
																	"hidden" : 0,
																	"midpoints" : [ 232.0, 182.0, 232.5, 182.0 ],
																	"source" : [ "obj-25", 0 ]
																}

															}
, 															{
																"patchline" : 																{
																	"destination" : [ "obj-2", 0 ],
																	"disabled" : 0,
																	"hidden" : 0,
																	"source" : [ "obj-4", 1 ]
																}

															}
, 															{
																"patchline" : 																{
																	"destination" : [ "obj-1", 0 ],
																	"disabled" : 0,
																	"hidden" : 0,
																	"source" : [ "obj-41", 0 ]
																}

															}
, 															{
																"patchline" : 																{
																	"destination" : [ "obj-4", 0 ],
																	"disabled" : 0,
																	"hidden" : 0,
																	"source" : [ "obj-42", 1 ]
																}

															}
, 															{
																"patchline" : 																{
																	"destination" : [ "obj-41", 0 ],
																	"disabled" : 0,
																	"hidden" : 0,
																	"midpoints" : [ 232.5, 226.5, 61.5, 226.5 ],
																	"source" : [ "obj-42", 0 ]
																}

															}
, 															{
																"patchline" : 																{
																	"destination" : [ "obj-196", 0 ],
																	"disabled" : 0,
																	"hidden" : 0,
																	"source" : [ "obj-63", 0 ]
																}

															}
, 															{
																"patchline" : 																{
																	"destination" : [ "obj-25", 0 ],
																	"disabled" : 0,
																	"hidden" : 0,
																	"source" : [ "obj-63", 1 ]
																}

															}
, 															{
																"patchline" : 																{
																	"destination" : [ "obj-1", 0 ],
																	"disabled" : 0,
																	"hidden" : 0,
																	"source" : [ "obj-8", 0 ]
																}

															}
 ]
													}
,
													"patching_rect" : [ 74.0, 116.0, 116.0, 20.0 ],
													"saved_object_attributes" : 													{
														"description" : "",
														"digest" : "",
														"globalpatchername" : "",
														"style" : "",
														"tags" : ""
													}
,
													"style" : "",
													"text" : "p capture_velocity_data"
												}

											}
, 											{
												"box" : 												{
													"fontname" : "Arial",
													"fontsize" : 10.0,
													"id" : "obj-5",
													"maxclass" : "newobj",
													"numinlets" : 3,
													"numoutlets" : 1,
													"outlettype" : [ "" ],
													"patcher" : 													{
														"fileversion" : 1,
														"appversion" : 														{
															"major" : 7,
															"minor" : 1,
															"revision" : 0,
															"architecture" : "x86",
															"modernui" : 1
														}
,
														"rect" : [ 309.0, 495.0, 388.0, 234.0 ],
														"bglocked" : 0,
														"openinpresentation" : 0,
														"default_fontsize" : 11.0,
														"default_fontface" : 0,
														"default_fontname" : "Arial",
														"gridonopen" : 1,
														"gridsize" : [ 15.0, 15.0 ],
														"gridsnaponopen" : 1,
														"objectsnaponopen" : 1,
														"statusbarvisible" : 2,
														"toolbarvisible" : 1,
														"lefttoolbarpinned" : 0,
														"toptoolbarpinned" : 0,
														"righttoolbarpinned" : 0,
														"bottomtoolbarpinned" : 0,
														"toolbars_unpinned_last_save" : 0,
														"tallnewobj" : 0,
														"boxanimatetime" : 200,
														"enablehscroll" : 1,
														"enablevscroll" : 1,
														"devicewidth" : 0.0,
														"description" : "",
														"digest" : "",
														"tags" : "",
														"style" : "",
														"subpatcher_template" : "",
														"boxes" : [ 															{
																"box" : 																{
																	"fontsize" : 40.0,
																	"id" : "obj-3",
																	"maxclass" : "message",
																	"numinlets" : 2,
																	"numoutlets" : 1,
																	"outlettype" : [ "" ],
																	"patching_rect" : [ 144.0, 78.0, 198.0, 53.0 ],
																	"style" : "",
																	"text" : "32.5"
																}

															}
, 															{
																"box" : 																{
																	"comment" : "",
																	"id" : "obj-1",
																	"maxclass" : "inlet",
																	"numinlets" : 0,
																	"numoutlets" : 1,
																	"outlettype" : [ "" ],
																	"patching_rect" : [ 80.0, 11.0, 25.0, 25.0 ],
																	"style" : ""
																}

															}
, 															{
																"box" : 																{
																	"fontname" : "Arial",
																	"fontsize" : 9.0,
																	"id" : "obj-99",
																	"maxclass" : "newobj",
																	"numinlets" : 2,
																	"numoutlets" : 1,
																	"outlettype" : [ "bang" ],
																	"patching_rect" : [ 48.0, 71.0, 51.0, 19.0 ],
																	"style" : "",
																	"text" : "metro 100"
																}

															}
, 															{
																"box" : 																{
																	"fontname" : "Arial",
																	"fontsize" : 9.0,
																	"id" : "obj-100",
																	"maxclass" : "newobj",
																	"numinlets" : 2,
																	"numoutlets" : 2,
																	"outlettype" : [ "", "" ],
																	"patching_rect" : [ 48.0, 96.0, 84.0, 19.0 ],
																	"style" : "",
																	"text" : "zl reg"
																}

															}
, 															{
																"box" : 																{
																	"comment" : "",
																	"id" : "obj-159",
																	"maxclass" : "inlet",
																	"numinlets" : 0,
																	"numoutlets" : 1,
																	"outlettype" : [ "int" ],
																	"patching_rect" : [ 48.0, 11.0, 25.0, 25.0 ],
																	"style" : ""
																}

															}
, 															{
																"box" : 																{
																	"comment" : "",
																	"id" : "obj-161",
																	"maxclass" : "inlet",
																	"numinlets" : 0,
																	"numoutlets" : 1,
																	"outlettype" : [ "" ],
																	"patching_rect" : [ 8.0, 11.0, 25.0, 25.0 ],
																	"style" : ""
																}

															}
, 															{
																"box" : 																{
																	"comment" : "",
																	"id" : "obj-162",
																	"maxclass" : "outlet",
																	"numinlets" : 1,
																	"numoutlets" : 0,
																	"patching_rect" : [ 48.0, 147.0, 25.0, 25.0 ],
																	"style" : ""
																}

															}
 ],
														"lines" : [ 															{
																"patchline" : 																{
																	"destination" : [ "obj-3", 1 ],
																	"disabled" : 0,
																	"hidden" : 0,
																	"source" : [ "obj-1", 0 ]
																}

															}
, 															{
																"patchline" : 																{
																	"destination" : [ "obj-99", 1 ],
																	"disabled" : 0,
																	"hidden" : 0,
																	"source" : [ "obj-1", 0 ]
																}

															}
, 															{
																"patchline" : 																{
																	"destination" : [ "obj-162", 0 ],
																	"disabled" : 0,
																	"hidden" : 0,
																	"source" : [ "obj-100", 0 ],
																	"watchpoint_flags" : 1,
																	"watchpoint_id" : 2
																}

															}
, 															{
																"patchline" : 																{
																	"destination" : [ "obj-99", 0 ],
																	"disabled" : 0,
																	"hidden" : 0,
																	"source" : [ "obj-159", 0 ]
																}

															}
, 															{
																"patchline" : 																{
																	"destination" : [ "obj-100", 1 ],
																	"disabled" : 0,
																	"hidden" : 0,
																	"midpoints" : [ 17.5, 65.5, 122.5, 65.5 ],
																	"source" : [ "obj-161", 0 ]
																}

															}
, 															{
																"patchline" : 																{
																	"destination" : [ "obj-100", 0 ],
																	"disabled" : 0,
																	"hidden" : 0,
																	"source" : [ "obj-99", 0 ]
																}

															}
 ]
													}
,
													"patching_rect" : [ 74.0, 167.5, 135.0, 20.0 ],
													"saved_object_attributes" : 													{
														"description" : "",
														"digest" : "",
														"fontsize" : 11.0,
														"globalpatchername" : "",
														"style" : "",
														"tags" : ""
													}
,
													"style" : "",
													"text" : "p resample"
												}

											}
, 											{
												"box" : 												{
													"comment" : "",
													"id" : "obj-6",
													"maxclass" : "outlet",
													"numinlets" : 1,
													"numoutlets" : 0,
													"patching_rect" : [ 74.0, 309.5, 25.0, 25.0 ],
													"style" : ""
												}

											}
, 											{
												"box" : 												{
													"comment" : "",
													"id" : "obj-1",
													"maxclass" : "inlet",
													"numinlets" : 0,
													"numoutlets" : 1,
													"outlettype" : [ "float" ],
													"patching_rect" : [ 74.0, 56.0, 25.0, 25.0 ],
													"style" : ""
												}

											}
, 											{
												"box" : 												{
													"comment" : "",
													"id" : "obj-32",
													"maxclass" : "inlet",
													"numinlets" : 0,
													"numoutlets" : 1,
													"outlettype" : [ "" ],
													"patching_rect" : [ 171.0, 56.0, 25.0, 25.0 ],
													"style" : ""
												}

											}
 ],
										"lines" : [ 											{
												"patchline" : 												{
													"destination" : [ "obj-4", 0 ],
													"disabled" : 0,
													"hidden" : 0,
													"source" : [ "obj-1", 0 ]
												}

											}
, 											{
												"patchline" : 												{
													"destination" : [ "obj-29", 0 ],
													"disabled" : 0,
													"hidden" : 0,
													"source" : [ "obj-12", 0 ]
												}

											}
, 											{
												"patchline" : 												{
													"destination" : [ "obj-7", 0 ],
													"disabled" : 0,
													"hidden" : 0,
													"source" : [ "obj-14", 0 ]
												}

											}
, 											{
												"patchline" : 												{
													"destination" : [ "obj-10", 0 ],
													"disabled" : 0,
													"hidden" : 0,
													"source" : [ "obj-16", 0 ]
												}

											}
, 											{
												"patchline" : 												{
													"destination" : [ "obj-5", 2 ],
													"disabled" : 0,
													"hidden" : 0,
													"source" : [ "obj-19", 0 ]
												}

											}
, 											{
												"patchline" : 												{
													"destination" : [ "obj-18", 1 ],
													"disabled" : 0,
													"hidden" : 0,
													"source" : [ "obj-25", 0 ]
												}

											}
, 											{
												"patchline" : 												{
													"destination" : [ "obj-6", 0 ],
													"disabled" : 0,
													"hidden" : 0,
													"source" : [ "obj-25", 0 ]
												}

											}
, 											{
												"patchline" : 												{
													"destination" : [ "obj-19", 0 ],
													"disabled" : 0,
													"hidden" : 0,
													"source" : [ "obj-29", 0 ]
												}

											}
, 											{
												"patchline" : 												{
													"destination" : [ "obj-7", 0 ],
													"disabled" : 0,
													"hidden" : 0,
													"source" : [ "obj-29", 0 ]
												}

											}
, 											{
												"patchline" : 												{
													"destination" : [ "obj-5", 2 ],
													"disabled" : 0,
													"hidden" : 0,
													"source" : [ "obj-3", 0 ]
												}

											}
, 											{
												"patchline" : 												{
													"destination" : [ "obj-4", 1 ],
													"disabled" : 0,
													"hidden" : 0,
													"source" : [ "obj-32", 0 ]
												}

											}
, 											{
												"patchline" : 												{
													"destination" : [ "obj-5", 1 ],
													"disabled" : 0,
													"hidden" : 0,
													"source" : [ "obj-4", 2 ]
												}

											}
, 											{
												"patchline" : 												{
													"destination" : [ "obj-5", 0 ],
													"disabled" : 0,
													"hidden" : 0,
													"source" : [ "obj-4", 0 ]
												}

											}
, 											{
												"patchline" : 												{
													"destination" : [ "obj-25", 0 ],
													"disabled" : 0,
													"hidden" : 0,
													"source" : [ "obj-5", 0 ]
												}

											}
, 											{
												"patchline" : 												{
													"destination" : [ "obj-16", 0 ],
													"disabled" : 0,
													"hidden" : 0,
													"source" : [ "obj-7", 0 ]
												}

											}
, 											{
												"patchline" : 												{
													"destination" : [ "obj-9", 0 ],
													"disabled" : 0,
													"hidden" : 0,
													"source" : [ "obj-8", 0 ]
												}

											}
, 											{
												"patchline" : 												{
													"destination" : [ "obj-12", 0 ],
													"disabled" : 0,
													"hidden" : 0,
													"source" : [ "obj-9", 0 ]
												}

											}
 ]
									}
,
									"patching_rect" : [ 275.0, 362.5, 104.0, 20.0 ],
									"saved_object_attributes" : 									{
										"description" : "",
										"digest" : "",
										"globalpatchername" : "",
										"style" : "",
										"tags" : ""
									}
,
									"style" : "",
									"text" : "p capture_resample1",
									"textcolor" : [ 0.497009, 0.497009, 0.497009, 1.0 ]
								}

							}
, 							{
								"box" : 								{
									"id" : "obj-3",
									"linecount" : 2,
									"maxclass" : "comment",
									"numinlets" : 1,
									"numoutlets" : 0,
									"patching_rect" : [ 275.0, 4.0, 102.0, 33.0 ],
									"style" : "",
									"text" : "right hand y axis position"
								}

							}
, 							{
								"box" : 								{
									"comment" : "",
									"id" : "obj-1",
									"maxclass" : "inlet",
									"numinlets" : 0,
									"numoutlets" : 1,
									"outlettype" : [ "" ],
									"patching_rect" : [ 250.0, 39.0, 30.0, 30.0 ],
									"style" : ""
								}

							}
 ],
						"lines" : [ 							{
								"patchline" : 								{
									"destination" : [ "obj-6", 0 ],
									"disabled" : 0,
									"hidden" : 0,
									"source" : [ "obj-1", 0 ]
								}

							}
, 							{
								"patchline" : 								{
									"destination" : [ "obj-23", 0 ],
									"disabled" : 0,
									"hidden" : 0,
									"source" : [ "obj-10", 0 ]
								}

							}
, 							{
								"patchline" : 								{
									"destination" : [ "obj-35", 2 ],
									"disabled" : 0,
									"hidden" : 0,
									"midpoints" : [ 444.5, 348.0, 369.5, 348.0 ],
									"source" : [ "obj-10", 0 ]
								}

							}
, 							{
								"patchline" : 								{
									"destination" : [ "obj-24", 0 ],
									"disabled" : 0,
									"hidden" : 0,
									"source" : [ "obj-13", 0 ]
								}

							}
, 							{
								"patchline" : 								{
									"destination" : [ "obj-13", 0 ],
									"disabled" : 0,
									"hidden" : 0,
									"source" : [ "obj-17", 0 ]
								}

							}
, 							{
								"patchline" : 								{
									"destination" : [ "obj-17", 0 ],
									"disabled" : 0,
									"hidden" : 0,
									"source" : [ "obj-19", 0 ]
								}

							}
, 							{
								"patchline" : 								{
									"destination" : [ "obj-31", 0 ],
									"disabled" : 0,
									"hidden" : 0,
									"source" : [ "obj-2", 0 ]
								}

							}
, 							{
								"patchline" : 								{
									"destination" : [ "obj-22", 1 ],
									"disabled" : 0,
									"hidden" : 0,
									"source" : [ "obj-20", 0 ]
								}

							}
, 							{
								"patchline" : 								{
									"destination" : [ "obj-10", 1 ],
									"disabled" : 0,
									"hidden" : 0,
									"midpoints" : [ 78.5, 278.75, 529.5, 278.75 ],
									"source" : [ "obj-21", 0 ]
								}

							}
, 							{
								"patchline" : 								{
									"destination" : [ "obj-35", 1 ],
									"disabled" : 0,
									"hidden" : 0,
									"midpoints" : [ 78.5, 291.0, 327.0, 291.0 ],
									"source" : [ "obj-21", 0 ]
								}

							}
, 							{
								"patchline" : 								{
									"destination" : [ "obj-10", 0 ],
									"disabled" : 0,
									"hidden" : 0,
									"source" : [ "obj-22", 0 ]
								}

							}
, 							{
								"patchline" : 								{
									"destination" : [ "obj-21", 1 ],
									"disabled" : 0,
									"hidden" : 0,
									"source" : [ "obj-24", 1 ]
								}

							}
, 							{
								"patchline" : 								{
									"destination" : [ "obj-21", 0 ],
									"disabled" : 0,
									"hidden" : 0,
									"source" : [ "obj-24", 0 ]
								}

							}
, 							{
								"patchline" : 								{
									"destination" : [ "obj-19", 0 ],
									"disabled" : 0,
									"hidden" : 0,
									"source" : [ "obj-31", 1 ],
									"watchpoint_flags" : 1,
									"watchpoint_id" : 3
								}

							}
, 							{
								"patchline" : 								{
									"destination" : [ "obj-11", 1 ],
									"disabled" : 0,
									"hidden" : 0,
									"source" : [ "obj-35", 1 ]
								}

							}
, 							{
								"patchline" : 								{
									"destination" : [ "obj-11", 0 ],
									"disabled" : 0,
									"hidden" : 0,
									"source" : [ "obj-35", 0 ]
								}

							}
, 							{
								"patchline" : 								{
									"destination" : [ "obj-22", 0 ],
									"disabled" : 0,
									"hidden" : 0,
									"source" : [ "obj-6", 1 ]
								}

							}
, 							{
								"patchline" : 								{
									"destination" : [ "obj-35", 0 ],
									"disabled" : 0,
									"hidden" : 0,
									"source" : [ "obj-6", 1 ]
								}

							}
, 							{
								"patchline" : 								{
									"destination" : [ "obj-20", 0 ],
									"disabled" : 0,
									"hidden" : 0,
									"source" : [ "obj-9", 0 ]
								}

							}
 ]
					}
,
					"patching_rect" : [ 30.5, 155.0, 226.0, 22.0 ],
					"saved_object_attributes" : 					{
						"description" : "",
						"digest" : "",
						"globalpatchername" : "",
						"style" : "",
						"tags" : ""
					}
,
					"style" : "",
					"text" : "p multiRangeMapping(Velocity+Position)"
				}

			}
, 			{
				"box" : 				{
					"id" : "obj-8",
					"linecount" : 2,
					"maxclass" : "comment",
					"numinlets" : 1,
					"numoutlets" : 0,
					"patching_rect" : [ 173.0, 15.499996, 150.0, 33.0 ],
					"style" : "",
					"text" : "Retrieve left hand and right and position data"
				}

			}
 ],
		"lines" : [ 			{
				"patchline" : 				{
					"destination" : [ "obj-24", 0 ],
					"disabled" : 0,
					"hidden" : 0,
					"source" : [ "obj-10", 0 ]
				}

			}
, 			{
				"patchline" : 				{
					"destination" : [ "obj-4", 0 ],
					"disabled" : 0,
					"hidden" : 0,
					"source" : [ "obj-11", 0 ]
				}

			}
, 			{
				"patchline" : 				{
					"destination" : [ "obj-4", 1 ],
					"disabled" : 0,
					"hidden" : 0,
					"source" : [ "obj-16", 0 ]
				}

			}
, 			{
				"patchline" : 				{
					"destination" : [ "obj-24", 0 ],
					"disabled" : 0,
					"hidden" : 0,
					"source" : [ "obj-17", 0 ]
				}

			}
, 			{
				"patchline" : 				{
					"destination" : [ "obj-24", 0 ],
					"disabled" : 0,
					"hidden" : 0,
					"source" : [ "obj-18", 0 ]
				}

			}
, 			{
				"patchline" : 				{
					"destination" : [ "obj-11", 0 ],
					"disabled" : 0,
					"hidden" : 0,
					"source" : [ "obj-24", 0 ]
				}

			}
, 			{
				"patchline" : 				{
					"destination" : [ "obj-16", 0 ],
					"disabled" : 0,
					"hidden" : 0,
					"source" : [ "obj-24", 0 ]
				}

			}
, 			{
				"patchline" : 				{
					"destination" : [ "obj-5", 0 ],
					"disabled" : 0,
					"hidden" : 0,
					"source" : [ "obj-3", 0 ]
				}

			}
, 			{
				"patchline" : 				{
					"destination" : [ "obj-6", 1 ],
					"disabled" : 0,
					"hidden" : 0,
					"source" : [ "obj-3", 0 ]
				}

			}
, 			{
				"patchline" : 				{
					"destination" : [ "obj-11", 2 ],
					"disabled" : 0,
					"hidden" : 0,
					"source" : [ "obj-7", 0 ]
				}

			}
, 			{
				"patchline" : 				{
					"destination" : [ "obj-2", 1 ],
					"disabled" : 0,
					"hidden" : 0,
					"source" : [ "obj-7", 0 ]
				}

			}
, 			{
				"patchline" : 				{
					"destination" : [ "obj-1", 1 ],
					"disabled" : 0,
					"hidden" : 0,
					"source" : [ "obj-9", 0 ]
				}

			}
, 			{
				"patchline" : 				{
					"destination" : [ "obj-16", 2 ],
					"disabled" : 0,
					"hidden" : 0,
					"source" : [ "obj-9", 0 ]
				}

			}
 ]
	}

}
